<svg xmlns="http://www.w3.org/2000/svg" viewBox="0 0 120 44">
  <rect x="4" y="8" width="16" height="4" fill="#111111"/>
  <rect x="16" y="4" width="20" height="4" fill="#111111"/>

  <rect x="16" y="12" width="40" height="4" fill="#111111"/>
  <rect x="12" y="16" width="44" height="4" fill="#111111"/>
  <rect x="12" y="20" width="40" height="4" fill="#111111"/>
  <rect x="16" y="24" width="32" height="4" fill="#111111"/>
  <rect x="20" y="28" width="24" height="4" fill="#111111"/>

  <rect x="16" y="16" width="4" height="4" fill="#ffffff"/>
  <rect x="24" y="16" width="4" height="4" fill="#ffffff"/>
  <rect x="20" y="20" width="4" height="4" fill="#ffffff"/>
  <rect x="28" y="20" width="4" height="4" fill="#ffffff"/>
  <rect x="24" y="24" width="4" height="4" fill="#ffffff"/>
  <rect x="32" y="24" width="4" height="4" fill="#ffffff"/>

  <rect x="52" y="12" width="16" height="4" fill="#111111"/>
  <rect x="56" y="16" width="8" height="4" fill="#111111"/>

  <rect x="64" y="12" width="40" height="4" fill="#111111"/>
  <rect x="64" y="16" width="44" height="4" fill="#111111"/>
  <rect x="68" y="20" width="40" height="4" fill="#111111"/>
  <rect x="72" y="24" width="32" height="4" fill="#111111"/>
  <rect x="76" y="28" width="24" height="4" fill="#111111"/>

  <rect x="100" y="16" width="4" height="4" fill="#ffffff"/>
  <rect x="92" y="16" width="4" height="4" fill="#ffffff"/>
  <rect x="96" y="20" width="4" height="4" fill="#ffffff"/>
  <rect x="88" y="20" width="4" height="4" fill="#ffffff"/>
  <rect x="92" y="24" width="4" height="4" fill="#ffffff"/>
  <rect x="84" y="24" width="4" height="4" fill="#ffffff"/>

  <rect x="84" y="4" width="20" height="4" fill="#111111"/>
  <rect x="100" y="8" width="16" height="4" fill="#111111"/>
</svg>